<svg width="20" height="20" viewBox="0 0 20 20" fill="none" xmlns="http://www.w3.org/2000/svg">
<path fill-rule="evenodd" clip-rule="evenodd" d="M10 20C4.48597 20 0 15.514 0 10C0 4.48597 4.48597 0 10 0C15.514 0 20 4.48597 20 10C20 15.514 15.514 20 10 20ZM18.4335 11.3689C18.1413 11.2766 15.7897 10.5753 13.113 11.0037C14.2302 14.0737 14.6848 16.5743 14.7723 17.0937C16.6887 15.798 18.0528 13.7455 18.4335 11.3689ZM13.3365 17.8757C13.2094 17.1263 12.7135 14.5146 11.5143 11.3984C11.4955 11.4048 11.4768 11.4109 11.458 11.4174C6.64026 13.0962 4.9108 16.4372 4.75715 16.7515C5.95695 17.687 7.38515 18.2846 8.89367 18.4823C10.4022 18.6799 11.9361 18.4705 13.3365 17.8757ZM3.65429 15.7242C3.84776 15.393 6.19196 11.5116 10.5972 10.0876C10.7085 10.0516 10.8207 10.0178 10.9337 9.98607C10.7193 9.50086 10.4858 9.01508 10.2413 8.53655C5.9757 9.81312 1.83652 9.75978 1.4628 9.7521C1.4602 9.83882 1.45845 9.92575 1.45845 10.0131C1.45681 12.1232 2.23941 14.1587 3.65429 15.7242ZM1.63888 8.26362C2.0209 8.26864 5.5401 8.28393 9.53542 7.22292C8.12015 4.70717 6.59377 2.59187 6.36861 2.28305C3.97904 3.41019 2.19273 5.61308 1.63888 8.26362ZM7.99837 1.70893C8.23447 2.02504 9.7858 4.13764 11.1855 6.70917C14.2227 5.57076 15.5086 3.84255 15.6622 3.62374C14.6338 2.7104 13.3997 2.05927 12.0653 1.72586C10.7308 1.39245 9.33555 1.38665 7.99837 1.70893ZM16.6117 4.61154C16.4316 4.85523 15.0004 6.69 11.8422 7.97938C12.0409 8.38625 12.2315 8.80005 12.4089 9.21658C12.4717 9.36415 12.5331 9.51109 12.5929 9.65738C15.435 9.30002 18.2589 9.87275 18.5405 9.93231C18.5242 7.99048 17.8435 6.11277 16.6117 4.61154Z" fill="#E94B88"/>
</svg>
