<svg width="18" height="18" viewBox="0 0 18 18" fill="none" xmlns="http://www.w3.org/2000/svg">
<path d="M16.65 0H1.35C0.63 0 0 0.542681 0 1.2663V16.7337C0 17.4573 0.63 18 1.35 18H16.65C17.37 18 18 17.4573 18 16.7337V1.2663C18 0.633133 17.37 0 16.65 0ZM5.31 15.4673H2.61V6.87435H5.31V15.4673ZM3.96 5.608C3.06 5.608 2.43 4.88442 2.43 4.07035C2.43 3.25628 3.15 2.53265 3.96 2.53265C4.77 2.53265 5.49 3.25628 5.49 4.07035C5.58 4.97488 4.86 5.608 3.96 5.608ZM15.3 15.4673H12.6V11.3066C12.6 10.3116 12.6 9.04523 11.25 9.04523C9.89999 9.04523 9.63001 10.1307 9.63001 11.3066V15.5578H6.93001V6.96478H9.44999V8.14071C9.80999 7.41709 10.71 6.78392 11.97 6.78392C14.67 6.78392 15.21 8.59297 15.21 10.8543V15.4673H15.3Z" fill="#0077B5"/>
</svg>
