<svg width="32" height="32" viewBox="0 0 32 32" fill="none" xmlns="http://www.w3.org/2000/svg">
<path d="M17.2207 1.20013L30.7986 14.778L31.9989 13.5779L18.421 0L17.2207 1.20013Z" fill="#5221E6"/>
<path fill-rule="evenodd" clip-rule="evenodd" d="M19.2336 7.60133C18.4975 6.86522 17.3874 6.65144 16.4305 7.06151L7.00714 11.1001C5.8941 11.5771 5.03594 12.5059 4.65549 13.6597C3.76246 16.3682 2.60708 19.9468 1.67428 23.0059C1.20815 24.5346 0.795621 25.9401 0.498919 27.0447C0.35075 27.5963 0.229365 28.0807 0.144391 28.4716C0.0652554 28.8358 0 29.1944 0 29.4529V29.8044L2.19436 31.9988H2.54586C2.80447 31.9988 3.16311 31.9336 3.52722 31.8545C3.91819 31.7695 4.40255 31.6481 4.95417 31.4999C6.05877 31.2033 7.46417 30.7907 8.99285 30.3246C12.052 29.3918 15.6306 28.2363 18.3392 27.3434C19.493 26.9629 20.4217 26.1048 20.8988 24.9917L24.9374 15.5683C25.3474 14.6115 25.1336 13.5013 24.3975 12.7652L19.2336 7.60133ZM17.0992 8.62152C17.4181 8.48483 17.7881 8.5561 18.0335 8.80147L23.1973 13.9654C23.4428 14.2107 23.5141 14.5808 23.3773 14.8997L19.3387 24.3232C19.0518 24.9924 18.4955 25.5046 17.8076 25.7314C15.1052 26.6224 11.5399 27.7735 8.49784 28.701C6.97594 29.1652 5.59147 29.5714 4.51389 29.8608C3.97444 30.0057 3.51965 30.1192 3.16676 30.196C3.09215 30.2121 3.02327 30.2265 2.9601 30.2389L11.6316 21.5674C12.5779 22.0195 13.7457 21.8535 14.5295 21.0697C15.5237 20.0755 15.5237 18.4636 14.5295 17.4694C13.5353 16.4751 11.9233 16.4751 10.9291 17.4694C10.1453 18.2532 9.97941 19.421 10.4315 20.3672L1.7599 29.0388C1.77238 28.9756 1.78668 28.9067 1.80291 28.8321C1.87961 28.4792 1.99315 28.0243 2.13806 27.485C2.42749 26.4074 2.83366 25.0229 3.29772 23.501C4.22533 20.4589 5.37634 16.8935 6.26738 14.1912C6.49416 13.5034 7.00635 12.947 7.67571 12.6601L17.0992 8.62152Z" fill="#5221E6"/>
</svg>
