<svg width="32" height="32" viewBox="0 0 32 32" fill="none" xmlns="http://www.w3.org/2000/svg">
<path fill-rule="evenodd" clip-rule="evenodd" d="M30.2222 23.1111H17.7778V30.2222H30.2222V23.1111ZM30.2222 1.77778H17.7778V16H30.2222V1.77778ZM10.6667 16H1.77778V30.2222H10.6667V16ZM10.6667 1.77778H1.77778V8.88889H10.6667V1.77778ZM17.7778 0C16.7959 0 16 0.795947 16 1.77778V16C16 16.9819 16.7959 17.7778 17.7778 17.7778H30.2222C31.2041 17.7778 32 16.9819 32 16V1.77778C32 0.795947 31.2041 0 30.2222 0H17.7778ZM17.7778 21.3333C16.7959 21.3333 16 22.1292 16 23.1111V30.2222C16 31.2041 16.7959 32 17.7778 32H30.2222C31.2041 32 32 31.2041 32 30.2222V23.1111C32 22.1292 31.2041 21.3333 30.2222 21.3333H17.7778ZM0 16C0 15.0182 0.795947 14.2222 1.77778 14.2222H10.6667C11.6485 14.2222 12.4444 15.0182 12.4444 16V30.2222C12.4444 31.2041 11.6485 32 10.6667 32H1.77778C0.795947 32 0 31.2041 0 30.2222V16ZM1.77778 0C0.795947 0 0 0.795947 0 1.77778V8.88889C0 9.87072 0.795947 10.6667 1.77778 10.6667H10.6667C11.6485 10.6667 12.4444 9.87072 12.4444 8.88889V1.77778C12.4444 0.795947 11.6485 0 10.6667 0H1.77778Z" fill="#5221E6"/>
</svg>
