<svg width="12" height="12" viewBox="0 0 12 12" fill="none" xmlns="http://www.w3.org/2000/svg">
<path d="M12 9.25953V1.53182C12 1.06273 11.7035 0.75 11.2258 0.75L3.49249 0.766459C3.03129 0.766459 2.7348 1.10388 2.7348 1.49067C2.7348 1.87747 3.07246 2.20666 3.45954 2.20666H5.90555L9.82575 2.05852L8.33508 3.37528L0.9806 10.7409C0.832357 10.889 0.75 11.0701 0.75 11.2429C0.75 11.6297 1.0959 12 1.49945 12C1.68887 12 1.86182 11.9259 2.01006 11.7778L9.37279 4.41223L10.6987 2.92265L10.5423 6.66716V9.29245C10.5423 9.67102 10.8717 10.0167 11.2752 10.0167C11.6623 10.0167 12 9.6957 12 9.25953Z" fill="white"/>
</svg>
