<svg width="40" height="32" viewBox="0 0 40 32" fill="none" xmlns="http://www.w3.org/2000/svg">
<path d="M36.5437 6.42551H32.9566L32.1325 2.70171C31.7806 1.11099 30.397 0 28.7678 0H16.3148C14.6856 0 13.302 1.11092 12.95 2.70164L12.1259 6.42551H11.2747V4.83663C11.2747 3.94127 10.5462 3.21276 9.65075 3.21276H4.40002C3.50458 3.21276 2.77606 3.94127 2.77606 4.83663V6.42551H2.66143C1.19392 6.42551 0 7.61943 0 9.08702V27.1128C0 28.5803 1.19392 29.7743 2.66151 29.7743H5.38344H15.0047C17.1774 31.1817 19.7654 32 22.5412 32C25.3171 32 27.9051 31.1817 30.0777 29.7743H36.5437C38.0113 29.7743 39.2052 28.5803 39.2052 27.1128V9.08702C39.2052 7.61943 38.0113 6.42551 36.5437 6.42551ZM14.4451 3.03251C14.6408 2.1487 15.4095 1.53138 16.3147 1.53138H28.7677C29.6729 1.53138 30.4417 2.14863 30.6372 3.03251L31.3881 6.42551H30.0777C27.9051 5.01811 25.3171 4.19978 22.5412 4.19978C19.7654 4.19978 17.1774 5.01811 15.0047 6.42551H13.6942L14.4451 3.03251ZM4.30752 4.83663C4.30752 4.78563 4.34902 4.74421 4.40002 4.74421H9.65068C9.70167 4.74421 9.74318 4.78571 9.74318 4.83663V6.42551H4.30752V4.83663ZM6.14916 28.2427V19.9256C6.14916 19.5027 5.80635 19.1599 5.38344 19.1599C4.96053 19.1599 4.61771 19.5027 4.61771 19.9256V28.2428H2.66151C2.03844 28.2428 1.53145 27.7358 1.53145 27.1128V9.08702C1.53145 8.46388 2.03844 7.95697 2.66151 7.95697H3.54187H10.5089H12.7406H13.0475C10.3375 10.495 8.64107 14.1028 8.64107 18.0999C8.64107 22.0969 10.3375 25.7047 13.0475 28.2427H6.14916ZM29.6112 28.2428C28.6984 28.881 27.696 29.399 26.6268 29.7743C25.3471 30.2234 23.9724 30.4685 22.5412 30.4685C21.1101 30.4685 19.7352 30.2234 18.4556 29.7743C17.3864 29.399 16.3841 28.881 15.4713 28.2428C12.2705 26.005 10.1725 22.2931 10.1725 18.0999C10.1725 13.9067 12.2705 10.1949 15.4713 7.95704C16.384 7.31889 17.3864 6.80087 18.4556 6.42559C19.7353 5.97642 21.1101 5.73131 22.5412 5.73131C23.9724 5.73131 25.3472 5.97649 26.6268 6.42559C27.696 6.80087 28.6983 7.31889 29.6112 7.95704C32.812 10.1949 34.9099 13.9067 34.9099 18.0999C34.9099 22.2931 32.812 26.005 29.6112 28.2428ZM37.6737 27.1127C37.6737 27.7358 37.1668 28.2427 36.5437 28.2427H32.0349C34.7449 25.7047 36.4414 22.0969 36.4414 18.0999C36.4414 14.1028 34.7449 10.495 32.0349 7.95697H32.3418H36.5437C37.1668 7.95697 37.6737 8.46388 37.6737 9.08702V27.1127Z" fill="#5221E6"/>
<path d="M22.5414 8.04663C16.9981 8.04663 12.4883 12.5565 12.4883 18.0998C12.4883 23.6432 16.9981 28.153 22.5414 28.153C23.3491 28.153 24.153 28.0568 24.9309 27.8671C25.3418 27.7669 25.5935 27.3527 25.4934 26.9418C25.3932 26.531 24.9789 26.279 24.5681 26.3793C23.9089 26.5401 23.227 26.6216 22.5414 26.6216C17.8425 26.6216 14.0197 22.7988 14.0197 18.0999C14.0197 13.401 17.8425 9.57816 22.5414 9.57816C27.2403 9.57816 31.0631 13.401 31.0631 18.0999C31.0631 19.8125 30.5574 21.4638 29.6005 22.8753C29.3632 23.2253 29.4546 23.7015 29.8046 23.9388C30.1544 24.176 30.6308 24.0848 30.8682 23.7347C31.9976 22.0687 32.5946 20.1202 32.5946 18.1C32.5946 12.5565 28.0847 8.04663 22.5414 8.04663Z" fill="#5221E6"/>
<path d="M5.38243 10.6038C3.81024 10.6038 2.53125 11.8828 2.53125 13.4549C2.53125 15.027 3.81032 16.3061 5.38243 16.3061C6.95454 16.3061 8.23361 15.027 8.23361 13.4549C8.23361 11.8828 6.95454 10.6038 5.38243 10.6038ZM5.38243 14.7747C4.65476 14.7747 4.0627 14.1827 4.0627 13.455C4.0627 12.7273 4.65476 12.1353 5.38243 12.1353C6.1101 12.1353 6.70216 12.7273 6.70216 13.455C6.70216 14.1827 6.11018 14.7747 5.38243 14.7747Z" fill="#5221E6"/>
<path d="M28.7219 25.4852C28.7119 25.4369 28.6973 25.3887 28.6782 25.342C28.659 25.296 28.6353 25.2516 28.6077 25.2103C28.5802 25.1682 28.548 25.1291 28.5128 25.0939C28.4776 25.0587 28.4378 25.0265 28.3964 24.9982C28.3543 24.9706 28.3099 24.9469 28.2639 24.9277C28.218 24.9086 28.1698 24.894 28.1208 24.8841C28.022 24.8642 27.9202 24.8642 27.8214 24.8841C27.7723 24.894 27.7241 24.9086 27.6782 24.9277C27.6322 24.9469 27.5879 24.9706 27.5457 24.9982C27.5044 25.0265 27.4653 25.0587 27.4294 25.0939C27.3941 25.1291 27.362 25.1682 27.3344 25.2103C27.3068 25.2516 27.2831 25.296 27.264 25.342C27.2448 25.3887 27.2303 25.4369 27.2203 25.4852C27.2104 25.5349 27.2051 25.5855 27.2051 25.6352C27.2051 25.685 27.2104 25.7356 27.2203 25.7846C27.2303 25.8336 27.2448 25.8818 27.264 25.9278C27.2831 25.9745 27.3068 26.0189 27.3344 26.0602C27.362 26.1023 27.3941 26.1414 27.4294 26.1766C27.4653 26.2118 27.5043 26.244 27.5457 26.2716C27.5879 26.2991 27.6323 26.3229 27.6782 26.342C27.7242 26.3612 27.7723 26.3757 27.8214 26.3857C27.8711 26.3956 27.921 26.401 27.9707 26.401C28.0212 26.401 28.071 26.3956 28.1208 26.3857C28.1698 26.3757 28.2181 26.3612 28.2639 26.342C28.3099 26.3229 28.3544 26.2991 28.3964 26.2716C28.4377 26.244 28.4776 26.2118 28.5128 26.1766C28.6552 26.0342 28.7365 25.8366 28.7365 25.6352C28.7365 25.5855 28.7318 25.5349 28.7219 25.4852Z" fill="#5221E6"/>
</svg>
