<svg width="20" height="16" viewBox="0 0 20 16" fill="none" xmlns="http://www.w3.org/2000/svg">
<path fill-rule="evenodd" clip-rule="evenodd" d="M20 1.87195C19.3103 2.16751 18.5222 2.36453 17.6355 2.46305C18.4236 1.97044 19.1133 1.18225 19.4089 0.295554C18.6207 0.788165 17.734 1.08373 16.8473 1.28078C16.1576 0.492599 15.0739 0 13.8916 0C11.6256 0 9.85222 1.7734 9.85222 3.94089C9.85222 4.23645 9.85222 4.53204 9.95074 4.82761C6.60099 4.63057 3.64532 3.0542 1.57636 0.689667C1.18227 1.2808 0.985222 1.97046 0.985222 2.66011C0.985222 4.03942 1.67488 5.22165 2.75862 6.00983C2.06896 6.00983 1.47783 5.81278 0.886694 5.51722C0.886694 5.51722 0.886694 5.51725 0.886694 5.61578C0.886694 7.58622 2.26601 9.16257 4.13793 9.55666C3.84236 9.65518 3.44828 9.65516 3.05419 9.65516C2.75862 9.65516 2.56158 9.65518 2.26601 9.55666C2.75862 11.133 4.23645 12.3153 6.00985 12.3153C4.63054 13.399 2.85715 13.9902 0.985222 13.9902C0.689655 13.9902 0.295567 13.9901 0 13.8916C1.7734 15.0739 3.94089 15.665 6.2069 15.665C13.5961 15.665 17.734 9.55667 17.734 4.335C17.734 4.13796 17.734 3.94091 17.734 3.84239C18.8177 3.34978 19.5074 2.66012 20 1.87195Z" fill="#26A7DE"/>
</svg>
